<?xml version="1.0" encoding="utf-8"?>
<!-- Generator: Adobe Illustrator 19.2.1, SVG Export Plug-In . SVG Version: 6.00 Build 0)  -->
<svg version="1.1" id="Isolation_Mode" xmlns="http://www.w3.org/2000/svg" xmlns:xlink="http://www.w3.org/1999/xlink" x="0px"
	 y="0px" width="52.5px" height="32.5px" viewBox="0 0 52.5 32.5" style="enable-background:new 0 0 52.5 32.5;"
	 xml:space="preserve">
<style type="text/css">
	.st0{fill:none;stroke:#FFF;stroke-width:2.5;stroke-linecap:round;stroke-miterlimit:10;}
</style>
<g>
	<path class="st0" d="M35.3,8.2h7.9c0.7,0,1.3,0.3,1.7,0.9l3.4,6.1h1c1.1,0,2,0.7,2,2.2v6.8c0,1.1-0.9,2-2,2h-2"/>
	<polyline class="st0" points="18.3,1.2 35.3,1.2 35.3,26.2 20.3,26.2 	"/>
	<line class="st0" x1="12.3" y1="26.2" x2="7.3" y2="26.2"/>
	<ellipse class="st0" cx="43.2" cy="27.3" rx="4" ry="4"/>
	<ellipse class="st0" cx="16.3" cy="27.3" rx="4" ry="4"/>
	<line class="st0" x1="35.3" y1="26.2" x2="39.3" y2="26.2"/>
	<polyline class="st0" points="39.3,17.3 44.3,17.3 44.3,16.2 42.3,13.2 	"/>
	<line class="st0" x1="1.2" y1="15.3" x2="18.2" y2="15.3"/>
	<line class="st0" x1="10.3" y1="8.3" x2="25.3" y2="8.3"/>
</g>
</svg>
