<?xml version="1.0" encoding="UTF-8" standalone="no"?>
<!DOCTYPE svg PUBLIC "-//W3C//DTD SVG 1.1//EN" "http://www.w3.org/Graphics/SVG/1.1/DTD/svg11.dtd">
<svg width="100%" height="100%" viewBox="0 0 195 24" version="1.1" xmlns="http://www.w3.org/2000/svg" xmlns:xlink="http://www.w3.org/1999/xlink" xml:space="preserve" xmlns:serif="http://www.serif.com/" style="fill-rule:evenodd;clip-rule:evenodd;stroke-linejoin:round;stroke-miterlimit:2;">
    <g transform="matrix(1,0,0,1,0,-7)">
        <g transform="matrix(0.158167,3.87398e-17,-3.87398e-17,0.158167,2.74824,8.47143)">
            <path d="M160.9,96.8L160.9,93.5C160.9,55.7 138.8,32.3 106.4,32.3C92.6,32.3 79.1,37.9 68.9,48.2C58.8,58.3 53.4,71.3 53.4,85.5C53.4,99.9 58.5,112.8 68.3,123.1C78.7,134.1 91.2,139.4 106.7,139.4C129.4,139.4 146.2,128.6 156.1,107.4L123.2,107.4C118.7,111.4 113.7,113 107.7,113C94.7,113 86.8,107.4 84.2,96.5L160.9,96.8ZM130.8,75.6L83.3,75.6C85.4,65.9 94.3,59.5 106.8,59.5C118.7,59.6 127.2,65.2 130.8,75.6" style="fill:white;fill-rule:nonzero;"/>
            <path d="M274.1,96.8L274.1,93.5C274.1,55.7 252,32.3 219.6,32.3C205.8,32.3 192.3,37.9 182.1,48.2C172,58.3 166.6,71.3 166.6,85.5C166.6,99.9 171.7,112.8 181.5,123.1C191.9,134.1 204.4,139.4 219.9,139.4C242.6,139.4 259.4,128.6 269.3,107.4L236.4,107.4C231.9,111.4 226.9,113 220.9,113C207.9,113 200,107.4 197.4,96.5L274.1,96.8ZM243.9,75.6L196.4,75.6C198.5,65.9 207.4,59.5 219.9,59.5C231.8,59.6 240.4,65.2 243.9,75.6" style="fill:white;fill-rule:nonzero;"/>
            <path d="M11,58.2L11,137.2L40.4,137.2L40.4,58.2L52.4,58.2L52.4,35.5L40.3,35.5L40.3,33C40.3,23.7 42.4,20.7 51.5,20.7L52.3,20.7L52.3,0.2C50.6,0.2 49,0 47.6,0C22.5,0.1 10.8,10 10.8,31.7C10.8,32.8 11,34.2 11,35.5L0,35.5L0,58.2L11,58.2Z" style="fill:white;fill-rule:nonzero;"/>
            <path d="M285.4,58.2L285.4,137.2L314.8,137.2L314.8,58.2L326.8,58.2L326.8,35.5L314.8,35.5L314.8,33C314.8,23.7 316.9,20.7 326,20.7L326.8,20.7L326.8,0.3C325.1,0.3 323.5,0.1 322.1,0.1C297,0.1 285.3,10 285.3,31.7C285.3,32.8 285.5,34.2 285.5,35.5L274.5,35.5L274.5,58.2L285.4,58.2Z" style="fill:white;fill-rule:nonzero;"/>
            <path d="M433.9,85.7C433.9,71.9 428.1,57.8 417.2,47.7C407,38 394.3,33 379.5,33C365.7,33 352.2,38.6 342,48.9C331.9,59 326.5,72 326.5,86.2C326.5,100.4 331.6,113.5 341.4,123.7C351.8,134.7 364.3,140 379.8,140C395.1,140 408,134.5 418.4,124.1C428.8,113.7 433.9,101 433.9,85.7M404.2,86.5C404.2,100.3 393.4,111.5 380.2,111.5C367.2,111.5 356.2,100.3 356.2,86.5C356.2,72.5 367,61.3 380.2,61.3C393.4,61.3 404.2,72.4 404.2,86.5" style="fill:rgb(255,251,251);fill-rule:nonzero;"/>
            <path d="M479.9,69.1C465.5,68.2 454,56.7 453.1,42.2L516.1,42.2L516.1,41.5C516.1,16.8 500.3,0.2 478.5,0.2C455.4,0.2 439.7,17.1 439.7,39.1C439.7,59.9 455.9,78.2 478,78.2C494.1,78.2 506.8,69.3 513.7,52.7L507.4,52.7C502.8,62.4 493,69.1 481.7,69.1C480.9,69.2 480.4,69.2 479.9,69.1" style="fill:rgb(255,208,0);fill-rule:nonzero;"/>
            <path d="M559.8,69.1C574.2,68.2 585.7,56.7 586.6,42.2L523.6,42.2L523.6,41.5C523.6,16.8 539.4,0.2 561.2,0.2C584.3,0.2 600,17.1 600,39.1C600,59.9 583.8,78.2 561.7,78.2C545.6,78.2 532.9,69.3 526,52.7L532.4,52.7C537,62.4 546.8,69.1 558.1,69.1C558.6,69.2 559.2,69.2 559.8,69.1" style="fill:rgb(255,208,0);fill-rule:nonzero;"/>
            <g transform="matrix(6.32242,0,0,6.32242,-57.0127,-37.1401)">
                <path d="M114.522,9.275L117.17,15.09L123.519,15.812L118.807,20.127L120.082,26.389L114.522,23.241L108.961,26.389L110.237,20.127L105.524,15.812L111.873,15.09L114.522,9.275Z" style="fill:rgb(255,208,0);"/>
            </g>
            <g transform="matrix(6.32242,0,0,6.32242,63.1133,-37.1401)">
                <path d="M114.522,9.275L117.17,15.09L123.519,15.812L118.807,20.127L120.082,26.389L114.522,23.241L108.961,26.389L110.237,20.127L105.524,15.812L111.873,15.09L114.522,9.275Z" style="fill:rgb(255,208,0);"/>
            </g>
            <g transform="matrix(6.32242,0,0,6.32242,183.239,-37.1401)">
                <path d="M114.522,9.275L117.17,15.09L123.519,15.812L118.807,20.127L120.082,26.389L114.522,23.241L108.961,26.389L110.237,20.127L105.524,15.812L111.873,15.09L114.522,9.275Z" style="fill:rgb(255,208,0);"/>
            </g>
            <g transform="matrix(6.32242,0,0,6.32242,303.365,-37.1401)">
                <path d="M114.522,9.275L117.17,15.09L123.519,15.812L118.807,20.127L120.082,26.389L114.522,23.241L108.961,26.389L110.237,20.127L105.524,15.812L111.873,15.09L114.522,9.275Z" style="fill:rgb(255,208,0);"/>
            </g>
            <g transform="matrix(6.32242,0,0,6.32242,423.491,-37.1401)">
                <path d="M114.522,9.275L117.17,15.09L123.519,15.812L118.807,20.127L120.082,26.389L114.522,23.241L108.961,26.389L110.237,20.127L105.524,15.812L111.873,15.09L114.522,9.275Z" style="fill:rgb(255,208,0);"/>
            </g>
        </g>
    </g>
</svg>
