<?xml version="1.0" encoding="utf-8"?>
<!-- Generator: Adobe Illustrator 19.2.1, SVG Export Plug-In . SVG Version: 6.00 Build 0)  -->
<svg version="1.1" id="Layer_3" xmlns="http://www.w3.org/2000/svg" xmlns:xlink="http://www.w3.org/1999/xlink" x="0px" y="0px"
	 width="455.1px" height="93px" viewBox="0 0 455.1 93" style="enable-background:new 0 0 455.1 93;" xml:space="preserve">
<style type="text/css">
	.st0{fill:none;}
	.st1{fill:#FFFFFF;}
</style>
<g>
	<path class="st0" d="M172.3,50.8c0.3-0.3,0.7-0.8,1-1.4c0.3-0.6,0.6-1.3,0.8-2.1c0.2-0.8,0.4-1.6,0.5-2.6c0.1-0.9,0.2-1.8,0.2-2.7
		c0-0.8-0.1-1.3-0.4-1.7c-0.3-0.4-0.9-0.5-1.7-0.5c-0.7,0-1.2,0.3-1.5,0.8c-0.4,0.5-0.7,1.3-1,2.4c-0.1,0.5-0.3,1.1-0.4,1.8
		c-0.2,0.7-0.3,1.5-0.5,2.3c-0.2,0.8-0.3,1.6-0.4,2.4c-0.1,0.8-0.2,1.5-0.3,2.1c0.7,0,1.4,0,2.1-0.1
		C171.3,51.3,171.9,51.1,172.3,50.8z"/>
	<path class="st0" d="M302,50.8c0.3-0.3,0.7-0.8,1-1.4c0.3-0.6,0.6-1.3,0.8-2.1c0.2-0.8,0.4-1.6,0.5-2.6c0.1-0.9,0.2-1.8,0.2-2.7
		c0-0.8-0.1-1.3-0.4-1.7c-0.3-0.4-0.9-0.5-1.7-0.5c-0.7,0-1.2,0.3-1.5,0.8c-0.4,0.5-0.7,1.3-1,2.4c-0.1,0.5-0.3,1.1-0.4,1.8
		c-0.2,0.7-0.3,1.5-0.5,2.3c-0.2,0.8-0.3,1.6-0.4,2.4c-0.1,0.8-0.2,1.5-0.3,2.1c0.7,0,1.4,0,2.1-0.1C301,51.3,301.6,51.1,302,50.8z"
		/>
	<path class="st0" d="M137.6,30h-1.8l-2.8,16.1c0.9,0,1.7-0.1,2.3-0.2c0.6-0.1,1.2-0.3,1.6-0.5c0.4-0.2,0.8-0.6,1.1-1s0.5-1,0.7-1.8
		c0.2-0.7,0.4-1.5,0.6-2.5c0.2-0.9,0.3-1.9,0.5-2.9c0.1-1,0.3-1.9,0.3-2.7c0.1-0.8,0.1-1.5,0.1-1.9c0-1.1-0.2-1.7-0.5-2.2
		S138.7,30,137.6,30z"/>
	<path class="st0" d="M336.9,42.8c-0.1-0.3-0.2-0.6-0.4-0.9c-0.2-0.2-0.5-0.4-0.8-0.4c-0.4,0-0.7,0-1,0.1c-0.3,0.1-0.5,0.2-0.7,0.4
		c-0.2,0.2-0.4,0.6-0.6,1.1c-0.2,0.5-0.4,1.1-0.6,1.9c-0.3,0.8-0.5,1.7-0.7,2.8c-0.2,1.1-0.4,2.2-0.5,3.2c-0.1,1.1-0.3,2-0.3,2.9
		c-0.1,0.9-0.1,1.6-0.1,2c0,1.1,0.1,2,0.4,2.7c0.3,0.6,0.8,1,1.4,1c0.4,0,0.7-0.1,1-0.3c0.3-0.2,0.5-0.5,0.8-1
		c0.2-0.5,0.5-1.1,0.7-1.9c0.2-0.8,0.5-1.9,0.7-3.1c0.3-1.4,0.5-2.8,0.7-4.3c0.2-1.5,0.3-2.9,0.3-4.3c0-0.2,0-0.5,0-0.9
		C337,43.5,337,43.2,336.9,42.8z"/>
	<path class="st0" d="M404,50.8c0.3-0.3,0.7-0.8,1-1.4c0.3-0.6,0.6-1.3,0.8-2.1c0.2-0.8,0.4-1.6,0.5-2.6c0.1-0.9,0.2-1.8,0.2-2.7
		c0-0.8-0.1-1.3-0.4-1.7c-0.3-0.4-0.9-0.5-1.7-0.5c-0.7,0-1.2,0.3-1.5,0.8c-0.4,0.5-0.7,1.3-1,2.4c-0.1,0.5-0.3,1.1-0.4,1.8
		c-0.2,0.7-0.3,1.5-0.5,2.3s-0.3,1.6-0.4,2.4c-0.1,0.8-0.2,1.5-0.3,2.1c0.7,0,1.4,0,2.1-0.1C403.1,51.3,403.7,51.1,404,50.8z"/>
	<path class="st1" d="M23.2,6.3c17,15.1,29.8,22.6,35.2,24.1c0.3,2.4,0.7,4.9,1.2,7.3c0.5,2.3,1,4.5,1.6,6.8
		c0.6,2.1,1.2,4.2,1.9,6.2c0.6,1.9,1.3,3.8,2,5.6c0.6,1.7,1.3,3.3,2.1,4.9c0.6,1.4,1.3,2.8,2,4.2c0.9,1.7,1.8,3.3,2.9,4.9
		c0.3,0.5,0.7,0.9,0.4,1.4L46.1,45.3c0.8-1.2,0.7-2.8-0.3-3.8c-1.2-1.2-3-1.2-4.2,0c-1.2,1.2-1.2,3,0,4.2c1,1,2.5,1.1,3.7,0.4
		l26.4,26.4c-0.5,0.3-0.9,0-1.4-0.4c-1.5-1.1-3.2-2-4.9-2.9c-1.4-0.7-2.8-1.4-4.2-2c-1.6-0.7-3.3-1.4-4.9-2.1
		c-1.9-0.7-3.7-1.4-5.6-2c-2.1-0.7-4.1-1.3-6.2-1.9c-2.2-0.6-4.5-1.1-6.8-1.6c-2.4-0.5-4.8-0.9-7.3-1.2c-1.5-5.4-9-18.1-24.1-35.2
		C-4.1,41-1.6,64.2,13.6,79.4c18.2,18.2,47.6,18.2,65.8,0c18.2-18.2,18.2-47.6,0-65.8C64.2-1.6,41-4.1,23.2,6.3z"/>
	<path class="st1" d="M150.9,30.2c-2.7-1.4-6.7-2.2-12.1-2.2h-20.9l-0.2,2h3.5l-5.5,31h-2l-0.2,2h21.1l0.2-2h-4.4l2.4-13.8
		c0.9,0,1.9,0.1,3,0.1c1.1,0,2.2,0.1,3.5,0c1.2,0,2.4-0.1,3.7-0.3c1.3-0.1,2.5-0.4,3.7-0.7c1.1-0.3,2.1-0.7,3.1-1.2
		c1-0.5,1.9-1.1,2.7-1.8c0.8-0.7,1.4-1.6,1.9-2.5c0.5-0.9,0.7-2,0.7-3.2C154.9,34.1,153.6,31.6,150.9,30.2z M140.1,34.5
		c-0.1,0.8-0.2,1.7-0.3,2.7c-0.1,1-0.3,1.9-0.5,2.9c-0.2,0.9-0.4,1.8-0.6,2.5c-0.2,0.7-0.4,1.3-0.7,1.8s-0.6,0.8-1.1,1
		c-0.4,0.2-1,0.4-1.6,0.4c-0.6,0.1-1.4,0.3-2.3,0.3l2.8-16.1h1.8c1.1,0,1.8,0,2.1,0.5s0.5,1.1,0.5,2.3
		C140.2,33.2,140.2,33.7,140.1,34.5z"/>
	<path class="st1" d="M168.3,52.6c0.7,0,1.3,0.1,2,0.1c0.7,0,1.5,0,2.4,0c1.8,0,3.5-0.2,5.1-0.5c1.6-0.3,3-0.8,4.2-1.5
		s2.1-1.4,2.8-2.4c0.7-0.9,1-2,1-3.2c0-1.3-0.4-2.4-1.2-3.3c-0.8-0.9-1.7-1.6-2.9-2.1c-1.1-0.5-2.4-0.9-3.7-1.1
		c-1.3-0.2-2.5-0.3-3.5-0.3c-2.8,0-5.3,0.4-7.6,1.2c-2.3,0.8-4.3,1.9-6,3.3c-1.7,1.3-3,2.9-3.9,4.6c-0.9,1.7-1.4,3.5-1.4,5.3
		c0,1.8,0.3,3.3,1,4.6c0.6,1.3,1.5,2.4,2.7,3.3c1.1,0.9,2.5,1.6,4,2c1.6,0.4,3.3,0.7,5.1,0.7c3.4,0,6.5-0.5,9.3-1.7s5.3-2.7,7.4-5.7
		h-1.5c-1.5,2-3.2,3-5.2,3.9c-2,0.9-4.1,1.3-6.4,1.3c-1.5,0-2.6-0.5-3.2-1.4c-0.7-0.9-1-2.2-1-3.9c0-0.5,0-1.1,0.1-1.7
		C168,53.6,168.2,53.1,168.3,52.6z M168.7,49.4c0.1-0.8,0.3-1.6,0.4-2.4c0.2-0.8,0.3-1.5,0.5-2.3c0.2-0.7,0.3-1.3,0.4-1.8
		c0.3-1.1,0.6-1.9,1-2.4c0.4-0.5,0.9-0.8,1.5-0.8c0.9,0,1.4,0.2,1.7,0.5c0.3,0.4,0.4,0.9,0.4,1.7c0,0.9-0.1,1.8-0.2,2.7
		c-0.1,0.9-0.3,1.8-0.5,2.6c-0.2,0.8-0.5,1.5-0.8,2.1c-0.3,0.6-0.6,1.1-1,1.4c-0.4,0.3-1,0.5-1.7,0.6c-0.8,0.1-1.5,0.1-2.1,0.1
		C168.5,50.9,168.6,50.2,168.7,49.4z"/>
	<path class="st1" d="M220.2,58.2c-0.5,0.8-1,1.1-1.4,1.1c-0.6,0-0.8-0.3-0.8-0.8c0-0.6,0.1-1.3,0.4-2.3c0.3-0.9,0.6-2,0.9-3.2
		c0.3-1.2,0.6-2.4,0.9-3.7c0.3-1.3,0.4-2.5,0.4-3.8c0-2.4-0.7-4.2-2-5.4c-1.3-1.2-3-1.8-5.1-1.8c-1.4,0-2.6,0.3-3.6,0.8
		c-1.1,0.5-2,1.2-2.8,2.1c-0.8,0.9-1.5,2-2.1,3.1c-0.6,1.1-1,2.6-1.4,3.6h-0.1c0.2-2,0.1-3.5-0.1-4.8c-0.3-1.2-0.7-2.2-1.3-2.9
		c-0.6-0.7-1.3-1.2-2.1-1.5c-0.8-0.3-1.7-0.4-2.5-0.4c-1.2,0-2.3,0.3-3.3,0.8c-1,0.5-1.8,1.2-2.6,2.1c-0.7,0.9-1.4,1.9-1.9,3.1
		c-0.5,1.2-0.9,2.6-1.2,3.6h1c0.4-1,0.7-2,1-2.7c0.3-0.7,0.5-1.2,0.8-1.6c0.2-0.4,0.5-0.7,0.7-0.8s0.4-0.2,0.6-0.2
		c0.1,0,0.3,0,0.4,0.1c0.1,0.1,0.2,0.3,0.2,0.5c0,0.3,0,0.6,0,1.1c0,0.5-0.1,1.1-0.3,1.9l-3,16.5c1.1-0.1,2.2-0.1,3.2-0.2
		c1,0,1.9-0.1,2.7-0.1c0.5,0,1,0,1.5,0c0.5,0,1,0,1.5,0.1c1,0.1,2,0.1,2.8,0.1l2-11.5c0.2-0.7,0.5-1.6,0.8-2.6c0.3-1,0.7-2,1.1-2.9
		c0.4-0.9,0.9-1.7,1.4-2.4c0.5-0.6,1.1-1,1.6-1c0.4,0,0.6,0.1,0.8,0.3s0.2,0.6,0.2,1.1c0,0.6-0.1,1.3-0.4,2.2
		c-0.2,0.9-0.5,2-0.8,3.1s-0.6,2.4-0.8,3.6c-0.2,1.3-0.4,2.5-0.4,3.8c0,1.2,0.2,2.2,0.5,3.1c0.4,0.8,0.8,1.5,1.4,2
		c0.6,0.5,1.2,0.9,1.9,1.1c0.7,0.2,1.4,0.3,2.1,0.3c1.7,0,3-0.2,4.1-0.7s2-1.1,2.8-2c0.7-0.9,1.4-1.6,1.9-2.8c0.5-1.2,1-2.6,1.4-3.6
		h-1.1C221.3,56,220.7,57.4,220.2,58.2z"/>
	<polygon class="st1" points="266.2,30 268.6,30 266.2,44 260.2,44 262.7,30 265,30 265.2,28 245,28 244.7,30 248.3,30 242.7,61
		240.9,61 240.6,63 259.1,63 259.4,61 257.1,61 259.9,45 265.9,45 263.1,61 260.6,61 260.4,63 280.9,63 281.2,61 277.5,61 283.1,30
		284.7,30 284.9,28 266.5,28 	"/>
	<path class="st1" d="M297.9,52.6c0.7,0,1.3,0.1,2,0.1c0.7,0,1.5,0,2.4,0c1.8,0,3.5-0.2,5.1-0.5c1.6-0.3,3-0.8,4.2-1.5
		s2.1-1.4,2.8-2.4c0.7-0.9,1-2,1-3.2c0-1.3-0.4-2.4-1.2-3.3c-0.8-0.9-1.7-1.6-2.9-2.1c-1.1-0.5-2.4-0.9-3.7-1.1
		c-1.3-0.2-2.5-0.3-3.5-0.3c-2.8,0-5.3,0.4-7.6,1.2c-2.3,0.8-4.3,1.9-6,3.3c-1.7,1.3-3,2.9-3.9,4.6c-0.9,1.7-1.4,3.5-1.4,5.3
		c0,1.8,0.3,3.3,1,4.6c0.6,1.3,1.5,2.4,2.7,3.3c1.1,0.9,2.5,1.6,4,2c1.6,0.4,3.3,0.7,5.1,0.7c3.4,0,6.5-0.5,9.3-1.7s5.3-2.7,7.4-5.7
		h-1.5c-1.5,2-3.2,3-5.2,3.9c-2,0.9-4.1,1.3-6.4,1.3c-1.5,0-2.6-0.5-3.2-1.4c-0.7-0.9-1-2.2-1-3.9c0-0.5,0-1.1,0.1-1.7
		C297.7,53.6,297.8,53.1,297.9,52.6z M298.4,49.4c0.1-0.8,0.3-1.6,0.4-2.4c0.2-0.8,0.3-1.5,0.5-2.3c0.2-0.7,0.3-1.3,0.4-1.8
		c0.3-1.1,0.6-1.9,1-2.4c0.4-0.5,0.9-0.8,1.5-0.8c0.9,0,1.4,0.2,1.7,0.5c0.3,0.4,0.4,0.9,0.4,1.7c0,0.9-0.1,1.8-0.2,2.7
		c-0.1,0.9-0.3,1.8-0.5,2.6c-0.2,0.8-0.5,1.5-0.8,2.1c-0.3,0.6-0.6,1.1-1,1.4c-0.4,0.3-1,0.5-1.7,0.6c-0.8,0.1-1.5,0.1-2.1,0.1
		C298.1,50.9,298.2,50.2,298.4,49.4z"/>
	<path class="st1" d="M350.7,55.3c-0.2,0.6-0.5,1.2-0.8,1.9c-0.3,0.6-0.7,1.2-1,1.7c-0.4,0.5-0.7,0.7-1.1,0.7
		c-0.5,0-0.8-0.3-0.9-0.9c-0.1-0.6,0-1.8,0.3-3.6l3.1-16.3c-1.1,0.1-2.2,0.1-3.2,0.2c-1,0-2,0.1-2.8,0.1c-0.5,0-0.9,0-1.3,0
		c-0.4,0-0.9,0-1.3-0.1c-0.4,0-0.9-0.1-1.3-0.1c-0.4,0-0.8-0.3-1.2-0.3l-0.8,4.4h-0.1c-0.5-1-1.4-3-2.5-3.7c-1.1-0.7-2.7-1-4.6-1
		c-1.7,0-3.2,0.4-4.7,1.2c-1.5,0.8-2.8,1.8-4,3.1s-2,2.8-2.7,4.5c-0.7,1.7-1,3.5-1,5.3c0,1.5,0.2,2.9,0.6,4.2c0.4,1.3,1,2.5,1.7,3.5
		c0.8,1,1.8,1.8,2.9,2.4c1.2,0.6,2.6,0.9,4.2,0.9c2.4,0,4.2-0.6,5.5-1.8c1.3-1.2,2.2-2.9,2.6-5.2l0.1,0.1c0,1,0.1,1.9,0.3,2.7
		c0.2,0.8,0.6,1.6,1.1,2.2c0.5,0.6,1.1,1.1,1.9,1.5s1.7,0.5,2.8,0.5c1.1,0,2.1-0.1,3-0.3s1.8-0.7,2.6-1.3c0.8-0.7,1.6-1.6,2.3-2.8
		c0.7-1.2,1.4-2.8,2-4.8h-1.1C351.1,54,350.9,54.7,350.7,55.3z M336.8,49.1c-0.2,1.5-0.4,2.9-0.7,4.3c-0.3,1.3-0.5,2.3-0.7,3.1
		c-0.2,0.8-0.5,1.5-0.7,1.9c-0.2,0.5-0.5,0.8-0.8,1c-0.3,0.2-0.6,0.3-1,0.3c-0.7,0-1.1-0.3-1.4-1c-0.3-0.6-0.4-1.5-0.4-2.7
		c0-0.4,0-1.1,0.1-2c0.1-0.9,0.2-1.9,0.3-2.9c0.1-1.1,0.3-2.1,0.5-3.2c0.2-1.1,0.4-2,0.7-2.8c0.2-0.8,0.4-1.4,0.6-1.9
		c0.2-0.5,0.4-0.8,0.6-1.1c0.2-0.2,0.5-0.4,0.7-0.4c0.3-0.1,0.6-0.1,1-0.1c0.4,0,0.6,0.1,0.8,0.4c0.2,0.2,0.3,0.5,0.4,0.9
		c0.1,0.3,0.2,0.7,0.2,1.1c0,0.4,0,0.7,0,0.9C337.1,46.2,337,47.7,336.8,49.1z"/>
	<path class="st1" d="M383.8,40.6c-0.5-0.7-1-1.2-1.7-1.7c-0.7-0.4-1.5-0.6-2.4-0.6c-1.6,0-2.8,0.5-3.7,1.5s-1.4,2.3-1.4,3.8
		c0,0.4,0.1,0.9,0.2,1.4c0.1,0.5,0.4,1,0.7,1.5c0.3,0.5,0.8,0.9,1.4,1.2c0.6,0.3,1.4,0.5,2.3,0.5c0.4,0,0.9-0.1,1.3-0.2
		s0.8-0.3,1.1-0.5c0.3-0.2,0.6-0.3,0.8-0.5s0.5-0.2,0.6-0.2c0.2,0,0.3,0.1,0.3,0.3c0,0.2,0,0.4,0,0.6c0,0.6-0.1,1.3-0.3,2.2
		c-0.2,0.9-0.6,1.8-1,2.8c-0.4,1-1,2-1.6,2.9c-0.6,1-1.3,1.9-2.2,2.7c-0.8,0.8-1.7,1.4-2.6,1.9s-2,0.7-3.1,0.7
		c-0.9,0-1.7-0.3-2.4-0.8c-0.7-0.5-1.1-1.2-1.1-2.2c0-1,0.1-2.1,0.4-3.2c0.3-1.1,0.6-2.2,1-3.4c0.3-1.1,0.7-2.3,1-3.4
		c0.3-1.1,0.4-2.2,0.4-3.3c0-2-0.6-3.6-1.9-4.7c-1.3-1.1-2.9-1.7-4.8-1.7c-2.4,0-4.5,0.8-6.3,2.5c-1.8,1.7-3.2,4.1-4.1,7.1h1.2
		c0.7-2,1.4-3.5,2.1-4.3c0.7-0.8,1.3-1.2,1.8-1.2c0.3,0,0.5,0.1,0.7,0.4c0.2,0.2,0.2,0.5,0.2,0.7c0,0.7-0.1,1.5-0.4,2.3
		c-0.3,0.8-0.6,1.7-0.9,2.6c-0.3,1-0.6,2-0.9,3.3c-0.3,1.2-0.4,2.6-0.4,4.1c0,0.6,0.1,1.3,0.4,2.1c0.2,0.9,0.7,1.7,1.5,2.5
		c0.7,0.8,1.8,1.5,3.1,2s3.1,0.8,5.3,0.8c1.8,0,3.3-0.2,4.6-0.5c1.3-0.3,2.5-0.8,3.5-1.3c1-0.5,1.9-1.1,2.6-1.8
		c0.7-0.7,1.4-1.4,1.9-2.1c0.4-0.6,0.9-1.4,1.4-2.4c0.5-1,1-2.1,1.4-3.2c0.4-1.1,0.8-2.3,1.1-3.4c0.3-1.1,0.4-2.1,0.4-3
		c0-0.9-0.1-1.8-0.3-2.7C384.6,42.1,384.3,41.3,383.8,40.6z"/>
	<path class="st1" d="M400,52.6c0.7,0,1.3,0.1,2,0.1c0.7,0,1.5,0,2.4,0c1.8,0,3.5-0.2,5.1-0.5c1.6-0.3,3-0.8,4.2-1.5
		s2.1-1.4,2.8-2.4s1-2,1-3.2c0-1.3-0.4-2.4-1.2-3.3c-0.8-0.9-1.7-1.6-2.9-2.1c-1.1-0.5-2.4-0.9-3.7-1.1c-1.3-0.2-2.5-0.3-3.5-0.3
		c-2.8,0-5.3,0.4-7.6,1.2c-2.3,0.8-4.3,1.9-6,3.3c-1.7,1.3-3,2.9-3.9,4.6c-0.9,1.7-1.4,3.5-1.4,5.3c0,1.8,0.3,3.3,1,4.6
		c0.6,1.3,1.5,2.4,2.7,3.3c1.1,0.9,2.5,1.6,4,2c1.6,0.4,3.3,0.7,5.1,0.7c3.4,0,6.5-0.5,9.3-1.7c2.8-1.1,5.3-2.7,7.4-5.7h-1.5
		c-1.5,2-3.2,3-5.2,3.9c-2,0.9-4.1,1.3-6.4,1.3c-1.5,0-2.6-0.5-3.2-1.4c-0.7-0.9-1-2.2-1-3.9c0-0.5,0-1.1,0.1-1.7
		C399.8,53.6,399.9,53.1,400,52.6z M400.5,49.4c0.1-0.8,0.3-1.6,0.4-2.4s0.3-1.5,0.5-2.3c0.2-0.7,0.3-1.3,0.4-1.8
		c0.3-1.1,0.6-1.9,1-2.4c0.4-0.5,0.9-0.8,1.5-0.8c0.9,0,1.4,0.2,1.7,0.5c0.3,0.4,0.4,0.9,0.4,1.7c0,0.9-0.1,1.8-0.2,2.7
		c-0.1,0.9-0.3,1.8-0.5,2.6c-0.2,0.8-0.5,1.5-0.8,2.1c-0.3,0.6-0.6,1.1-1,1.4c-0.4,0.3-1,0.5-1.7,0.6c-0.8,0.1-1.5,0.1-2.1,0.1
		C400.2,50.9,400.3,50.2,400.5,49.4z"/>
	<path class="st1" d="M454,54c-0.9,2-1.5,3.4-2,4.2c-0.5,0.8-1,1.1-1.4,1.1c-0.6,0-0.8-0.3-0.8-0.8c0-0.6,0.1-1.3,0.4-2.3
		c0.3-0.9,0.6-2,0.9-3.2c0.3-1.2,0.6-2.4,0.9-3.7c0.3-1.3,0.4-2.5,0.4-3.8c0-2.4-0.7-4.2-2-5.4c-1.3-1.2-3-1.8-5.1-1.8
		c-1.4,0-2.6,0.3-3.6,0.8c-1.1,0.5-2,1.2-2.8,2.1c-0.8,0.9-1.5,2-2.1,3.1c-0.6,1.1-1,2.6-1.4,3.6h-0.1c0.2-2,0.1-3.5-0.1-4.8
		c-0.3-1.2-0.7-2.2-1.3-2.9s-1.3-1.2-2.1-1.5c-0.8-0.3-1.7-0.4-2.5-0.4c-1.2,0-2.3,0.3-3.3,0.8c-1,0.5-1.8,1.2-2.6,2.1
		c-0.7,0.9-1.4,1.9-1.9,3.1c-0.5,1.2-0.9,2.6-1.2,3.6h1c0.4-1,0.7-2,1-2.7c0.3-0.7,0.5-1.2,0.8-1.6c0.2-0.4,0.5-0.7,0.7-0.8
		s0.4-0.2,0.6-0.2c0.1,0,0.3,0,0.4,0.1c0.1,0.1,0.2,0.3,0.2,0.5c0,0.3,0,0.6,0,1.1c0,0.5-0.1,1.1-0.3,1.9l-3,16.5
		c1.1-0.1,2.2-0.1,3.2-0.2c1,0,1.9-0.1,2.7-0.1c0.5,0,1,0,1.5,0c0.5,0,1,0,1.5,0.1c1,0.1,2,0.1,2.8,0.1l2-11.5
		c0.2-0.7,0.5-1.6,0.8-2.6c0.3-1,0.7-2,1.1-2.9c0.4-0.9,0.9-1.7,1.4-2.4s1.1-1,1.6-1c0.4,0,0.6,0.1,0.8,0.3s0.2,0.6,0.2,1.1
		c0,0.6-0.1,1.3-0.4,2.2c-0.2,0.9-0.5,2-0.8,3.1c-0.3,1.1-0.6,2.4-0.8,3.6c-0.2,1.3-0.4,2.5-0.4,3.8c0,1.2,0.2,2.2,0.5,3.1
		c0.4,0.8,0.8,1.5,1.4,2c0.6,0.5,1.2,0.9,1.9,1.1c0.7,0.2,1.4,0.3,2.1,0.3c1.7,0,3-0.2,4.1-0.7c1.1-0.5,2-1.1,2.8-2
		c0.7-0.9,1.4-1.6,1.9-2.8c0.5-1.2,1-2.6,1.4-3.6H454z"/>
</g>
</svg>
